<svg version="1.2" xmlns="http://www.w3.org/2000/svg" viewBox="0 185.99999999999997 128 111.00000000000003" width="128" height="112">
	<style>
		.s0 { fill: #000000 } 
	</style>
	<g id="Layer 1">
		<g id="&lt;Group&gt;">
			<g id="&lt;Group&gt;">
				<path id="&lt;Path&gt;" class="s0" d="m58.5 274.5h-2v-20.83c-1.16 0.41-2 1.53-2 2.83v18h-2v-18c0-2.76 2.24-5 5-5h1z"/>
			</g>
			<g id="&lt;Group&gt;">
				<path id="&lt;Path&gt;" class="s0" d="m57.5 257.5v2h-4v-2z"/>
			</g>
			<g id="&lt;Group&gt;">
				<path id="&lt;Path&gt;" class="s0" d="m57.5 269.5v2h-4v-2z"/>
			</g>
			<g id="&lt;Group&gt;">
				<path id="&lt;Path&gt;" class="s0" d="m76.5 274.5h-2v-18c0-1.3-0.84-2.42-2-2.83v20.83h-2v-23h1c2.76 0 5 2.24 5 5z"/>
			</g>
			<g id="&lt;Group&gt;">
				<path id="&lt;Path&gt;" class="s0" d="m87.5 275.5h-46v-11.8c0-2.93 1.85-5.57 4.61-6.58l7.05-2.56 0.68 1.88-7.05 2.56c-1.97 0.72-3.29 2.61-3.29 4.7v9.8h42v-9.8c0-2.09-1.32-3.98-3.29-4.7l-7.05-2.56 0.68-1.88 7.05 2.56c2.76 1.01 4.61 3.65 4.61 6.58z"/>
			</g>
			<g id="&lt;Group&gt;">
				<path id="&lt;Path&gt;" class="s0" d="m75.5 257.5v2h-4v-2z"/>
			</g>
			<g id="&lt;Group&gt;">
				<path id="&lt;Path&gt;" class="s0" d="m57.5 261.5v2h-4v-2z"/>
			</g>
			<g id="&lt;Group&gt;">
				<path id="&lt;Path&gt;" class="s0" d="m75.5 261.5v2h-4v-2z"/>
			</g>
			<g id="&lt;Group&gt;">
				<path id="&lt;Path&gt;" class="s0" d="m75.5 269.5v2h-4v-2z"/>
			</g>
			<g id="&lt;Group&gt;">
				<path id="&lt;Path&gt;" class="s0" d="m71.5 259.5v2h-14v-2z"/>
			</g>
			<g id="&lt;Group&gt;">
				<path id="&lt;Path&gt;" class="s0" d="m64.5 271.82l-7.65-6.56 1.3-1.52 6.35 5.44 6.35-5.44 1.3 1.52z"/>
			</g>
			<g id="&lt;Group&gt;">
				<path id="&lt;Path&gt;" class="s0" d="m65.5 265.5h-2v-2h2z"/>
			</g>
			<g id="&lt;Group&gt;">
				<path id="&lt;Path&gt;" class="s0" d="m80.5 263.5v11h-2v-11z"/>
			</g>
			<g id="&lt;Group&gt;">
				<path id="&lt;Path&gt;" class="s0" d="m50.5 263.5v11h-2v-11z"/>
			</g>
			<g id="&lt;Group&gt;">
				<path id="&lt;Path&gt;" class="s0" d="m64.5 254.5c-6.07 0-11-4.93-11-11v-10h2v10c0 4.96 4.04 9 9 9 4.96 0 9-4.04 9-9v-10h2v10c0 6.07-4.93 11-11 11z"/>
			</g>
			<g id="&lt;Group&gt;">
				<path id="&lt;Path&gt;" class="s0" d="m67.5 237.5v2h-6v-2z"/>
			</g>
			<g id="&lt;Group&gt;">
				<path id="&lt;Path&gt;" class="s0" d="m75.29 237.5c-1.49 0-2.82-0.82-3.48-2.15-0.57-1.14-1.72-1.85-2.99-1.85-0.67 0-1.31 0.19-1.86 0.56l-2.46 1.64-2.46-1.64c-0.55-0.37-1.19-0.56-1.86-0.56-1.27 0-2.42 0.71-2.99 1.85-0.66 1.33-1.99 2.15-3.48 2.15v-2c0.72 0 1.37-0.4 1.7-1.05 0.91-1.82 2.74-2.95 4.77-2.95 1.06 0 2.09 0.31 2.97 0.9l1.35 0.9 1.35-0.9c0.88-0.59 1.91-0.9 2.97-0.9 2.03 0 3.86 1.13 4.77 2.95 0.33 0.65 0.98 1.05 1.7 1.05z"/>
			</g>
			<g id="&lt;Group&gt;">
				<path id="&lt;Path&gt;" class="s0" d="m71.5 240.5c0 0.55-0.45 1-1 1-0.55 0-1-0.45-1-1 0-0.55 0.45-1 1-1 0.55 0 1 0.45 1 1z"/>
			</g>
			<g id="&lt;Group&gt;">
				<path id="&lt;Path&gt;" class="s0" d="m59.5 240.5c0 0.55-0.45 1-1 1-0.55 0-1-0.45-1-1 0-0.55 0.45-1 1-1 0.55 0 1 0.45 1 1z"/>
			</g>
			<g id="&lt;Group&gt;">
				<path id="&lt;Path&gt;" class="s0" d="m64.5 250.5c-2.21 0-4-1.79-4-4h2c0 1.1 0.9 2 2 2 1.1 0 2-0.9 2-2h2c0 2.21-1.79 4-4 4z"/>
			</g>
			<g id="&lt;Group&gt;">
				<path id="&lt;Path&gt;" class="s0" d="m74.5 245.5v-2c1.1 0 2-0.9 2-2 0-1.1-0.9-2-2-2v-2c2.21 0 4 1.79 4 4 0 2.21-1.79 4-4 4z"/>
			</g>
			<g id="&lt;Group&gt;">
				<path id="&lt;Path&gt;" class="s0" d="m54.5 245.5c-2.21 0-4-1.79-4-4 0-2.21 1.79-4 4-4v2c-1.1 0-2 0.9-2 2 0 1.1 0.9 2 2 2z"/>
			</g>
			<g id="&lt;Group&gt;">
				<path id="&lt;Path&gt;" class="s0" d="m78.5 241.5h-2v-7c0-6.62-5.38-12-12-12-6.62 0-12 5.38-12 12v7h-2v-7c0-7.72 6.28-14 14-14 7.72 0 14 6.28 14 14z"/>
			</g>
			<g id="&lt;Group&gt;">
				<path id="&lt;Path&gt;" class="s0" d="m70.5 222.5h-2c0-2.73-1.46-5.31-3.8-6.71l-0.2-0.12-0.2 0.12c-2.34 1.4-3.8 3.98-3.8 6.71h-2c0-3.43 1.83-6.66 4.77-8.43l1.23-0.74 1.23 0.74c2.94 1.77 4.77 5 4.77 8.43z"/>
			</g>
			<g id="&lt;Group&gt;">
				<path id="&lt;Path&gt;" class="s0" d="m48.5 254.5c-6.07 0-11-4.93-11-11v-10h2v10c0 4.96 4.04 9 9 9 2.86 0 5.48-1.31 7.2-3.6l1.6 1.2c-2.1 2.8-5.31 4.4-8.8 4.4z"/>
			</g>
			<g id="&lt;Group&gt;">
				<path id="&lt;Path&gt;" class="s0" d="m51.5 237.5v2h-6v-2z"/>
			</g>
			<g id="&lt;Group&gt;">
				<path id="&lt;Path&gt;" class="s0" d="m37.71 237.5v-2c0.72 0 1.37-0.4 1.7-1.05 0.91-1.82 2.74-2.95 4.77-2.95 1.06 0 2.09 0.31 2.97 0.9l1.35 0.9 1.35-0.9q0.63-0.42 1.35-0.65l0.6 1.91q-0.44 0.14-0.84 0.4l-2.46 1.64-2.46-1.64c-0.55-0.37-1.19-0.56-1.86-0.56-1.27 0-2.42 0.71-2.99 1.85-0.66 1.33-1.99 2.15-3.48 2.15z"/>
			</g>
			<g id="&lt;Group&gt;">
				<path id="&lt;Path&gt;" class="s0" d="m43.5 240.5c0 0.55-0.45 1-1 1-0.55 0-1-0.45-1-1 0-0.55 0.45-1 1-1 0.55 0 1 0.45 1 1z"/>
			</g>
			<g id="&lt;Group&gt;">
				<path id="&lt;Path&gt;" class="s0" d="m48.5 250.5c-2.21 0-4-1.79-4-4h2c0 1.1 0.9 2 2 2 1.1 0 2-0.9 2-2h2c0 2.21-1.79 4-4 4z"/>
			</g>
			<g id="&lt;Group&gt;">
				<path id="&lt;Path&gt;" class="s0" d="m38.5 245.5c-2.21 0-4-1.79-4-4 0-2.21 1.79-4 4-4v2c-1.1 0-2 0.9-2 2 0 1.1 0.9 2 2 2z"/>
			</g>
			<g id="&lt;Group&gt;">
				<path id="&lt;Path&gt;" class="s0" d="m36.5 241.5h-2v-7c0-7.72 6.28-14 14-14 3.16 0 6.14 1.03 8.62 2.96l-1.24 1.58c-2.12-1.66-4.67-2.54-7.38-2.54-6.62 0-12 5.38-12 12z"/>
			</g>
			<g id="&lt;Group&gt;">
				<path id="&lt;Path&gt;" class="s0" d="m54.5 222.5h-2c0-2.73-1.46-5.31-3.8-6.71l-0.2-0.12-0.2 0.12c-2.34 1.4-3.8 3.98-3.8 6.71h-2c0-3.43 1.83-6.66 4.77-8.43l1.23-0.74 1.23 0.74c2.94 1.77 4.77 5 4.77 8.43z"/>
			</g>
			<g id="&lt;Group&gt;">
				<path id="&lt;Path&gt;" class="s0" d="m80.5 254.5c-3.49 0-6.7-1.6-8.8-4.4l1.6-1.2c1.72 2.29 4.34 3.6 7.2 3.6 4.96 0 9-4.04 9-9v-10h2v10c0 6.07-4.93 11-11 11z"/>
			</g>
			<g id="&lt;Group&gt;">
				<path id="&lt;Path&gt;" class="s0" d="m83.5 237.5v2h-6v-2z"/>
			</g>
			<g id="&lt;Group&gt;">
				<path id="&lt;Path&gt;" class="s0" d="m91.29 237.5c-1.49 0-2.82-0.82-3.48-2.15-0.57-1.14-1.72-1.85-2.99-1.85-0.67 0-1.31 0.19-1.86 0.56l-2.46 1.64-2.46-1.64q-0.4-0.26-0.84-0.4l0.6-1.91q0.72 0.23 1.35 0.65l1.35 0.9 1.35-0.9c0.88-0.59 1.91-0.9 2.97-0.9 2.03 0 3.86 1.13 4.77 2.95 0.33 0.65 0.98 1.05 1.7 1.05z"/>
			</g>
			<g id="&lt;Group&gt;">
				<path id="&lt;Path&gt;" class="s0" d="m85.5 240.5c0 0.55 0.45 1 1 1 0.55 0 1-0.45 1-1 0-0.55-0.45-1-1-1-0.55 0-1 0.45-1 1z"/>
			</g>
			<g id="&lt;Group&gt;">
				<path id="&lt;Path&gt;" class="s0" d="m80.5 250.5c-2.21 0-4-1.79-4-4h2c0 1.1 0.9 2 2 2 1.1 0 2-0.9 2-2h2c0 2.21-1.79 4-4 4z"/>
			</g>
			<g id="&lt;Group&gt;">
				<path id="&lt;Path&gt;" class="s0" d="m90.5 245.5v-2c1.1 0 2-0.9 2-2 0-1.1-0.9-2-2-2v-2c2.21 0 4 1.79 4 4 0 2.21-1.79 4-4 4z"/>
			</g>
			<g id="&lt;Group&gt;">
				<path id="&lt;Path&gt;" class="s0" d="m94.5 241.5h-2v-7c0-6.62-5.38-12-12-12-2.71 0-5.26 0.88-7.38 2.54l-1.24-1.58c2.48-1.93 5.46-2.96 8.62-2.96 7.72 0 14 6.28 14 14z"/>
			</g>
			<g id="&lt;Group&gt;">
				<path id="&lt;Path&gt;" class="s0" d="m86.5 222.5h-2c0-2.73-1.46-5.31-3.8-6.71l-0.2-0.12-0.2 0.12c-2.34 1.4-3.8 3.98-3.8 6.71h-2c0-3.43 1.83-6.66 4.77-8.43l1.23-0.74 1.23 0.74c2.94 1.77 4.77 5 4.77 8.43z"/>
			</g>
		</g>
	</g>
</svg>