<svg version="1.2" xmlns="http://www.w3.org/2000/svg" viewBox="409 95.00000000000001 76 103.99999999999999" width="76" height="104">
	<style>
		.s0 { fill: #000000 } 
	</style>
	<g id="Layer 1">
		<g id="&lt;Group&gt;">
			<g id="&lt;Group&gt;">
				<path id="&lt;Path&gt;" class="s0" d="m448.5 162.5c-6.07 0-11-4.93-11-11v-10h2v10c0 4.96 4.04 9 9 9 4.96 0 9-4.04 9-9v-10h2v10c0 6.07-4.93 11-11 11z"/>
			</g>
			<g id="&lt;Group&gt;">
				<path id="&lt;Path&gt;" class="s0" d="m458.5 144.5c-1.63 0-3.07-0.98-3.67-2.49l-0.34-0.84c-0.4-1.01-1.37-1.67-2.47-1.67-0.71 0-1.38 0.28-1.89 0.78l-1.63 1.63-1.63-1.63c-0.51-0.5-1.18-0.78-1.89-0.78-1.1 0-2.07 0.66-2.47 1.67l-0.34 0.84c-0.6 1.51-2.04 2.49-3.67 2.49v-2c0.8 0 1.52-0.48 1.81-1.23l0.34-0.84c0.71-1.78 2.41-2.93 4.33-2.93 1.25 0 2.42 0.49 3.3 1.37l0.22 0.22 0.22-0.22c0.88-0.88 2.05-1.37 3.3-1.37 1.92 0 3.62 1.15 4.33 2.93l0.34 0.84c0.29 0.75 1.01 1.23 1.81 1.23z"/>
			</g>
			<g id="&lt;Group&gt;">
				<path id="&lt;Path&gt;" class="s0" d="m449.5 145.5h-2v-2h2z"/>
			</g>
			<g id="&lt;Group&gt;">
				<path id="&lt;Path&gt;" class="s0" d="m454.5 147.5c0 0.55-0.45 1-1 1-0.55 0-1-0.45-1-1 0-0.55 0.45-1 1-1 0.55 0 1 0.45 1 1z"/>
			</g>
			<g id="&lt;Group&gt;">
				<path id="&lt;Path&gt;" class="s0" d="m444.5 147.5c0 0.55-0.45 1-1 1-0.55 0-1-0.45-1-1 0-0.55 0.45-1 1-1 0.55 0 1 0.45 1 1z"/>
			</g>
			<g id="&lt;Group&gt;">
				<path id="&lt;Path&gt;" class="s0" d="m448.5 156.5c-2.21 0-4-1.79-4-4h2c0 1.1 0.9 2 2 2 1.1 0 2-0.9 2-2h2c0 2.21-1.79 4-4 4z"/>
			</g>
			<g id="&lt;Group&gt;">
				<path id="&lt;Path&gt;" class="s0" d="m455.5 130.5h-13v-2h13c0.55 0 1-0.45 1-1 0-0.55-0.45-1-1-1h-12v-2h12c1.65 0 3 1.35 3 3 0 1.65-1.35 3-3 3z"/>
			</g>
			<g id="&lt;Group&gt;">
				<path id="&lt;Compound Path&gt;" class="s0" d="m456.5 165.5h-16c-1.65 0-3-1.35-3-3 0-1.65 1.35-3 3-3h16c1.65 0 3 1.35 3 3 0 1.65-1.35 3-3 3zm-16-4c-0.55 0-1 0.45-1 1 0 0.55 0.45 1 1 1h16c0.55 0 1-0.45 1-1 0-0.55-0.45-1-1-1z"/>
			</g>
			<g id="&lt;Group&gt;">
				<path id="&lt;Compound Path&gt;" class="s0" d="m461.5 169.5h-28c-1.65 0-3-1.35-3-3v-6h-1c-1.65 0-3-1.35-3-3 0-1.65 1.35-3 3-3h4c1.65 0 3 1.35 3 3v6h25c1.65 0 3 1.35 3 3 0 1.65-1.35 3-3 3zm-32-13c-0.55 0-1 0.45-1 1 0 0.55 0.45 1 1 1h3v8c0 0.55 0.45 1 1 1h28c0.55 0 1-0.45 1-1 0-0.55-0.45-1-1-1h-27v-8c0-0.55-0.45-1-1-1z"/>
			</g>
			<g id="&lt;Group&gt;">
				<path id="&lt;Path&gt;" class="s0" d="m469.5 179.5h-42v-8.08c0-2.49 1.34-4.82 3.5-6.06l1 1.73c-1.54 0.89-2.5 2.55-2.5 4.33v6.08h38v-6.08c0-2.38-1.69-4.44-4.02-4.9l-0.18-0.04 0.4-1.96 0.17 0.03c3.26 0.66 5.63 3.54 5.63 6.87z"/>
			</g>
			<g id="&lt;Group&gt;">
				<path id="&lt;Path&gt;" class="s0" d="m461.5 178.5h-2v-10h2z"/>
			</g>
			<g id="&lt;Group&gt;">
				<path id="&lt;Path&gt;" class="s0" d="m437.5 178.5h-2v-10h2z"/>
			</g>
			<g id="&lt;Group&gt;">
				<path id="&lt;Path&gt;" class="s0" d="m465.11 166.93c-3.02-6.41-4.61-13.53-4.61-20.61v-3.82c0-6.62-5.38-12-12-12-6.62 0-12 5.38-12 12v3.82c0 3.32-0.34 6.64-1.02 9.88l-1.96-0.41c0.65-3.1 0.98-6.29 0.98-9.47v-3.82c0-7.72 6.28-14 14-14 7.72 0 14 6.28 14 14v3.82c0 6.78 1.53 13.62 4.42 19.75z"/>
			</g>
			<g id="&lt;Group&gt;">
				<path id="&lt;Path&gt;" class="s0" d="m456.5 125.5h-2c0-3.31-2.69-6-6-6-2.64 0-5 1.76-5.75 4.29l-1.92-0.58c1-3.36 4.16-5.71 7.67-5.71 4.41 0 8 3.59 8 8z"/>
			</g>
			<g id="&lt;Group&gt;">
				<path id="&lt;Path&gt;" class="s0" d="m440.5 173.5h-4v-2h4z"/>
			</g>
			<g id="&lt;Group&gt;">
				<path id="&lt;Path&gt;" class="s0" d="m447.5 176.5h-4v-2h4z"/>
			</g>
			<g id="&lt;Group&gt;">
				<path id="&lt;Path&gt;" class="s0" d="m453.5 173.5h-4v-2h4z"/>
			</g>
			<g id="&lt;Group&gt;">
				<path id="&lt;Path&gt;" class="s0" d="m460.5 176.5h-4v-2h4z"/>
			</g>
			<g id="&lt;Group&gt;">
				<path id="&lt;Compound Path&gt;" class="s0" d="m439.5 131.5c-2.76 0-5-2.24-5-5v-2.41l1.71 1.7c0.3 0.3 1.4 1.18 2.58 0 0.98-0.98-0.12-2.73-0.13-2.75l-0.99-1.54h1.83c2.76 0 5 2.24 5 5 0 2.76-2.24 5-5 5zm-2.35-3.14c0.55 0.69 1.4 1.14 2.35 1.14 1.65 0 3-1.35 3-3 0-1.05-0.54-1.97-1.36-2.51 0.19 1.06 0.03 2.25-0.93 3.22-1 1-2.09 1.27-3.06 1.15z"/>
			</g>
		</g>
	</g>
</svg>