<svg version="1.2" xmlns="http://www.w3.org/2000/svg" viewBox="480.99999999999994 165.00000000000003 127.00000000000006 144.00000000000003" width="128" height="145">
	<style>
		.s0 { fill: #000000 } 
	</style>
	<g id="Layer 1">
		<g id="&lt;Group&gt;">
			<g id="&lt;Group&gt;">
				<path id="&lt;Path&gt;" class="s0" d="m550.5 239.5c0 0.55-0.45 1-1 1-0.55 0-1-0.45-1-1 0-0.55 0.45-1 1-1 0.55 0 1 0.45 1 1z"/>
			</g>
			<g id="&lt;Group&gt;">
				<path id="&lt;Path&gt;" class="s0" d="m540.5 239.5c0 0.55-0.45 1-1 1-0.55 0-1-0.45-1-1 0-0.55 0.45-1 1-1 0.55 0 1 0.45 1 1z"/>
			</g>
			<g id="&lt;Group&gt;">
				<path id="&lt;Path&gt;" class="s0" d="m554.5 244.5v-2c1.1 0 2-0.9 2-2 0-1.1-0.9-2-2-2v-2c2.21 0 4 1.79 4 4 0 2.21-1.79 4-4 4z"/>
			</g>
			<g id="&lt;Group&gt;">
				<path id="&lt;Path&gt;" class="s0" d="m534.5 244.5c-2.21 0-4-1.79-4-4 0-2.21 1.79-4 4-4v2c-1.1 0-2 0.9-2 2 0 1.1 0.9 2 2 2z"/>
			</g>
			<g id="&lt;Group&gt;">
				<path id="&lt;Path&gt;" class="s0" d="m548.55 218.8l-1.04-3.3h-6.02l-1.04 3.3-1.9-0.6 1.46-4.7h8.98l1.46 4.7z"/>
			</g>
			<g id="&lt;Group&gt;">
				<path id="&lt;Compound Path&gt;" class="s0" d="m544.5 268.17l-4.25-5.67 4.25-5.67 4.25 5.67zm-1.75-5.67l1.75 2.34 1.75-2.34-1.75-2.33z"/>
			</g>
			<g id="&lt;Group&gt;">
				<path id="&lt;Path&gt;" class="s0" d="m540.5 254.5h-2v-2h2z"/>
			</g>
			<g id="&lt;Group&gt;">
				<path id="&lt;Path&gt;" class="s0" d="m550.5 254.5h-2v-2h2z"/>
			</g>
			<g id="&lt;Group&gt;">
				<path id="&lt;Path&gt;" class="s0" d="m544.5 275.5h-21v-12.08c0-3.33 2.37-6.21 5.63-6.87l7.17-1.43 0.4 1.96-7.18 1.44c-2.33 0.46-4.02 2.52-4.02 4.9v10.08h19z"/>
			</g>
			<g id="&lt;Group&gt;">
				<path id="&lt;Path&gt;" class="s0" d="m540.5 274.5h-2v-18.83c-1.16 0.41-2 1.53-2 2.83v16h-2v-16c0-2.76 2.24-5 5-5h1z"/>
			</g>
			<g id="&lt;Group&gt;">
				<path id="&lt;Path&gt;" class="s0" d="m545.5 237.5h-2v-3h2z"/>
			</g>
			<g id="&lt;Group&gt;">
				<path id="&lt;Path&gt;" class="s0" d="m544.5 254.5c-6.07 0-11-4.93-11-11v-9.69l8.65-3.25 0.7 1.88-7.35 2.75v8.31c0 4.96 4.04 9 9 9 4.96 0 9-4.04 9-9v-8.31l-7.35-2.75 0.7-1.88 8.65 3.25v9.69c0 6.07-4.93 11-11 11z"/>
			</g>
			<g id="&lt;Group&gt;">
				<path id="&lt;Compound Path&gt;" class="s0" d="m544.5 235.5c-1.71 0-3-2.15-3-5 0-2.85 1.29-5 3-5 1.71 0 3 2.15 3 5 0 2.85-1.29 5-3 5zm0-8c-0.25 0-1 1.06-1 3 0 1.94 0.75 3 1 3 0.25 0 1-1.06 1-3 0-1.94-0.75-3-1-3z"/>
			</g>
			<g id="&lt;Group&gt;">
				<path id="&lt;Path&gt;" class="s0" d="m559.53 257.72l-3.03-13.22v-14c0-3.86-3.14-7-7-7h-10c-3.86 0-7 3.14-7 7l-0.03 14.22-3 13-1.94-0.44 2.97-12.89v-13.89c0-4.96 4.04-9 9-9h10c4.96 0 9 4.04 9 9v13.89l2.97 12.89z"/>
			</g>
			<g id="&lt;Group&gt;">
				<path id="&lt;Path&gt;" class="s0" d="m552.5 222.5h-2v-2c0-0.55-0.45-1-1-1h-10c-0.55 0-1 0.45-1 1v2h-2v-2c0-1.65 1.35-3 3-3h10c1.65 0 3 1.35 3 3z"/>
			</g>
			<g id="&lt;Group&gt;">
				<path id="&lt;Path&gt;" class="s0" d="m544.5 259.5c-4.67 0-5.9-3.53-5.95-3.68l1.9-0.65c0.03 0.1 0.86 2.33 4.05 2.33z"/>
			</g>
			<g id="&lt;Group&gt;">
				<path id="&lt;Path&gt;" class="s0" d="m539.5 262.5h-4v-2h4z"/>
			</g>
			<g id="&lt;Group&gt;">
				<path id="&lt;Path&gt;" class="s0" d="m539.5 266.5h-4v-2h4z"/>
			</g>
			<g id="&lt;Group&gt;">
				<path id="&lt;Path&gt;" class="s0" d="m539.5 270.5h-4v-2h4z"/>
			</g>
			<g id="&lt;Group&gt;">
				<path id="&lt;Path&gt;" class="s0" d="m531.5 267.5h-7v-2h7z"/>
			</g>
			<g id="&lt;Group&gt;">
				<path id="&lt;Path&gt;" class="s0" d="m530.63 271.5h-6.13v-2h6.13z"/>
			</g>
			<g id="&lt;Group&gt;">
				<path id="&lt;Path&gt;" class="s0" d="m565.5 275.5h-21v-2h19v-10.08c0-2.38-1.69-4.44-4.02-4.9l-7.18-1.44 0.4-1.96 7.17 1.43c3.26 0.66 5.63 3.54 5.63 6.87z"/>
			</g>
			<g id="&lt;Group&gt;">
				<path id="&lt;Path&gt;" class="s0" d="m554.5 274.5h-2v-16c0-1.3-0.84-2.42-2-2.83v18.83h-2v-21h1c2.76 0 5 2.24 5 5z"/>
			</g>
			<g id="&lt;Group&gt;">
				<path id="&lt;Path&gt;" class="s0" d="m544.5 259.5v-2c3.24 0 4.04-2.29 4.05-2.32l1.9 0.64c-0.05 0.15-1.28 3.68-5.95 3.68z"/>
			</g>
			<g id="&lt;Group&gt;">
				<path id="&lt;Path&gt;" class="s0" d="m553.5 266.5h-4v-2h4z"/>
			</g>
			<g id="&lt;Group&gt;">
				<path id="&lt;Path&gt;" class="s0" d="m553.5 270.5h-4v-2h4z"/>
			</g>
			<g id="&lt;Group&gt;">
				<path id="&lt;Path&gt;" class="s0" d="m564.5 267.5h-7v-2h7z"/>
			</g>
			<g id="&lt;Group&gt;">
				<path id="&lt;Path&gt;" class="s0" d="m564.5 271.5h-6.13v-2h6.13z"/>
			</g>
			<g id="&lt;Group&gt;">
				<path id="&lt;Path&gt;" class="s0" d="m538.5 233.5h-2v-1.76c0-1.62 0.38-3.24 1.11-4.69l0.35-0.71 1.87 0.46c2.16 0.54 3.67 2.47 3.67 4.7h-2c0-1.31-0.89-2.44-2.15-2.76l-0.28-0.07c-0.37 0.98-0.57 2.02-0.57 3.07z"/>
			</g>
			<g id="&lt;Group&gt;">
				<path id="&lt;Path&gt;" class="s0" d="m533.95 238.33l-1.41-0.94c-1.28-0.85-2.04-2.27-2.04-3.81 0-0.9 0.27-1.78 0.77-2.54l1.79-2.68 1.77 0.44c2.16 0.54 3.67 2.47 3.67 4.7h-2c0-1.31-0.89-2.44-2.15-2.76l-0.41-0.1-1.01 1.51q-0.43 0.65-0.43 1.43c0 0.87 0.43 1.67 1.15 2.15l1.4 0.94z"/>
			</g>
			<g id="&lt;Group&gt;">
				<path id="&lt;Path&gt;" class="s0" d="m552.5 233.5h-2v-1.76c0-1.05-0.2-2.09-0.57-3.07l-0.28 0.07c-1.26 0.32-2.15 1.45-2.15 2.76h-2c0-2.23 1.51-4.16 3.67-4.7l1.87-0.46 0.35 0.71c0.73 1.45 1.11 3.07 1.11 4.69z"/>
			</g>
			<g id="&lt;Group&gt;">
				<path id="&lt;Path&gt;" class="s0" d="m555.05 238.33l-1.1-1.66 1.4-0.94c0.72-0.48 1.15-1.28 1.15-2.15q0-0.78-0.43-1.43l-1.01-1.51-0.41 0.1c-1.26 0.32-2.15 1.45-2.15 2.76h-2c0-2.23 1.51-4.16 3.67-4.7l1.77-0.44 1.79 2.68c0.5 0.76 0.77 1.64 0.77 2.54 0 1.54-0.76 2.96-2.04 3.81z"/>
			</g>
			<g id="&lt;Group&gt;">
				<path id="&lt;Path&gt;" class="s0" d="m544.5 249.5c-2.76 0-5-2.24-5-5h2c0 1.65 1.35 3 3 3 1.65 0 3-1.35 3-3h2c0 2.76-2.24 5-5 5z"/>
			</g>
			<g id="&lt;Group&gt;">
				<path id="&lt;Path&gt;" class="s0" d="m531.79 275.21c-1.45-1.46-2.29-3.48-2.29-5.54v-0.1c0-1.55 0.45-3.05 1.31-4.34 0.45-0.68 0.69-1.46 0.69-2.27h2c0 1.21-0.35 2.37-1.02 3.37-0.64 0.96-0.98 2.08-0.98 3.24v0.1c0 1.54 0.62 3.04 1.71 4.12z"/>
			</g>
			<g id="&lt;Group&gt;">
				<path id="&lt;Path&gt;" class="s0" d="m557.21 275.21l-1.42-1.42c1.09-1.08 1.71-2.58 1.71-4.12v-0.1c0-1.16-0.34-2.28-0.98-3.24-0.67-1-1.02-2.16-1.02-3.37h2c0 0.81 0.24 1.59 0.69 2.26 0.86 1.3 1.31 2.8 1.31 4.35v0.1c0 2.06-0.84 4.08-2.29 5.54z"/>
			</g>
		</g>
	</g>
</svg>